<svg width="14" height="14" viewBox="0 0 14 14" fill="none" xmlns="http://www.w3.org/2000/svg">
<g clip-path="url(#clip0_219_37)">
<path d="M11.6663 5.83317C11.6663 8.74575 8.43526 11.7791 7.35026 12.7159C7.24918 12.7919 7.12614 12.833 6.99967 12.833C6.87321 12.833 6.75017 12.7919 6.64909 12.7159C5.56409 11.7791 2.33301 8.74575 2.33301 5.83317C2.33301 4.59549 2.82467 3.40851 3.69984 2.53334C4.57501 1.65817 5.762 1.1665 6.99967 1.1665C8.23735 1.1665 9.42434 1.65817 10.2995 2.53334C11.1747 3.40851 11.6663 4.59549 11.6663 5.83317Z" stroke="#FEF3C6" stroke-width="1.66667" stroke-linecap="round" stroke-linejoin="round"/>
<path d="M7 7.5835C7.9665 7.5835 8.75 6.79999 8.75 5.8335C8.75 4.867 7.9665 4.0835 7 4.0835C6.0335 4.0835 5.25 4.867 5.25 5.8335C5.25 6.79999 6.0335 7.5835 7 7.5835Z" stroke="#FEF3C6" stroke-width="1.66667" stroke-linecap="round" stroke-linejoin="round"/>
</g>
<defs>
<clipPath id="clip0_219_37">
<rect width="14" height="14" fill="white"/>
</clipPath>
</defs>
</svg>
