<svg width="16" height="16" viewBox="0 0 16 16" fill="none" xmlns="http://www.w3.org/2000/svg">
<path d="M14.8326 11.3152V13.4227C14.8334 13.6184 14.7932 13.8121 14.7147 13.9913C14.6361 14.1706 14.521 14.3315 14.3765 14.4638C14.232 14.5961 14.0615 14.6968 13.8758 14.7594C13.6901 14.8221 13.4933 14.8454 13.298 14.8278C11.132 14.5929 9.05131 13.8542 7.22324 12.6711C5.52246 11.5924 4.08049 10.1533 2.99974 8.45592C1.81011 6.62319 1.06978 4.53655 0.838721 2.36506C0.821131 2.17079 0.844265 1.97499 0.906649 1.79013C0.969034 1.60528 1.0693 1.43541 1.20107 1.29134C1.33284 1.14728 1.49323 1.03217 1.67201 0.95336C1.8508 0.874545 2.04407 0.833748 2.23951 0.833564H4.35126C4.69288 0.830209 5.02406 0.95094 5.28308 1.17326C5.5421 1.39557 5.71128 1.7043 5.75909 2.0419C5.84823 2.71637 6.01353 3.37861 6.25184 4.01599C6.34654 4.26744 6.36704 4.54071 6.3109 4.80343C6.25476 5.06615 6.12433 5.3073 5.93507 5.49831L5.0411 6.39051C6.04316 8.1493 7.50231 9.60556 9.2646 10.6056L10.1586 9.71344C10.35 9.52455 10.5916 9.39439 10.8548 9.33836C11.1181 9.28233 11.3919 9.30278 11.6438 9.3973C12.2825 9.63514 12.946 9.80011 13.6218 9.88907C13.9638 9.93721 14.2761 10.1091 14.4993 10.372C14.7225 10.635 14.8411 10.9707 14.8326 11.3152Z" stroke="#FEF3C6" stroke-width="1.66667" stroke-linecap="round" stroke-linejoin="round"/>
</svg>
